# xmcd
#
# Track frame offsets:
#	150
#	12457
#	24567
#	39402
#	53242
#	66902
#	79965
#	93080
#	106137
#	121950
#
# Disc length: 1780 seconds
#
# Revision: 1
# Processed by: cddbd v1.5.1PL0 Copyright (c) Steve Scherf et al.
# Submitted via: audiograbber 1.83.01
#
DISCID=7906f20a
DTITLE=Dolly Parton - American Music Legends
DYEAR=2005
DGENRE=Country
TTITLE0=9 to 5
TTITLE1=Jolene
TTITLE2=But You Know I Love You
TTITLE3=Coat of Many Colors
TTITLE4=Two Doors Down
TTITLE5=The Right Combination
TTITLE6=I Will Allways Love You
TTITLE7=Here You Come Again
TTITLE8=Heartbreaker
TTITLE9=Wings of a Dove
EXTD=
EXTT0=
EXTT1=
EXTT2=
EXTT3=
EXTT4=
EXTT5=
EXTT6=
EXTT7=
EXTT8=
EXTT9=
PLAYORDER=
